<?xml version="1.0" encoding="UTF-8"?>
<svg xmlns="http://www.w3.org/2000/svg" viewBox="0 0 1000 1000">
  <defs>
    <style>
      .cls-1 {
        fill: #b82026;
        stroke-width: 0px;
      }
    </style>
  </defs>
  <g id="Layer_4_copy" data-name="Layer 4 copy">
    <g>
      <path class="cls-1" d="M494.37,649l-135.88-113.96,10.32,5.76.72,108h-35.28v-183.6h0l132.48,120.48-7.68-3.36-.72-110.16h35.04l1,176.84h0Z"/>
      <path class="cls-1" d="M517.12,648.86l79.16-183.6v-.03s74.71,183.78,74.71,183.78l-34.31-.2-50.55-129.12,25.04-17.28-60.57,146.4-33.49.06ZM570.65,584.96h52.7l12.16,29.28h-75.59l10.73-29.28Z"/>
    </g>
  </g>
  <g id="Layer_3" data-name="Layer 3">
    <path class="cls-1" d="M242.39,650.14c-30.64-115.64-9.91-221.54,61.45-299,77.46-84.09,182.08-85.4,199.58-85.33,18.64.07,115.01,2.38,190.39,78.24,75.34,75.82,101.05,193.97,66.57,305.96-9.62,0-19.25,0-28.49.11,38.11-86.74,23.78-209.11-48.51-288.86-69.02-76.14-167.54-72.82-179.85-72.82-89.65,0-149.98,30.77-205.15,101.7-67.38,86.62-48.12,211.75-28.88,259.88"/>
  </g>
  <g id="Layer_5" data-name="Layer 5">
    <path class="cls-1" d="M298.28,439.61c35.11-30.96,70.22-61.93,105.33-92.89,11.26,9.48,22.52,18.96,33.78,28.44,22.96-20.74,45.93-41.48,68.89-62.22,20.74,18.52,41.87,38.04,62.61,56.56-4.67,4.56-4.83,4.44-9.22,8.83-14.5-10-28-19.33-40.06-28.06,2.39,16.83,4.61,29.72,6.83,43.06-4.42-4.33-11.81-11.33-16.06-15.83-18.52,18.67-35.37,39.89-53.89,58.56,11.85-25.78,23.7-51.56,35.56-77.33-16.89,15.26-33.78,30.52-50.67,45.78-10.81-9.19-21.63-18.37-32.44-27.56,1.78,11.7,2.94,18.02,4.72,29.72-3.7-3.7-7.41-7.41-11.11-11.11-10.44,13.33-20.89,28.22-30.94,41.39,8.28-21.82,14.67-38.67,19.56-51.56-21.83,17.81-47.56,33.28-72.83,53.94"/>
  </g>
  <g id="Layer_6_copy" data-name="Layer 6 copy">
    <path class="cls-1" d="M506.06,439.67c15.78-15.33,31.56-30.67,47.33-46,15.78-15.33,31.56-30.67,47.33-46,33.19,31.41,66.37,62.81,99.56,94.22h-18.67c-23.18-19.92-46.36-39.84-69.53-59.77-3.19-2.74-6.39-5.49-9.58-8.23-26.07,21.63-51.84,44.06-77.92,65.69l-18.53.08Z"/>
  </g>
  <g id="Layer_11" data-name="Layer 11">
    <polygon class="cls-1" points="589.33 383.67 570 435.33 601.22 398.22 611 416.33 605 363.33 589.33 383.67"/>
  </g>
</svg>